REM MD5 47cb81ebfdf802a092a35c5b653c2de3
FILE "Colin McRae Rally (USA).bin" BINARY
  TRACK 01 MODE2/2352
    INDEX 01 00:00:00
  TRACK 02 AUDIO
    INDEX 00 19:53:30
    INDEX 01 19:55:30
  TRACK 03 AUDIO
    INDEX 00 25:09:30
    INDEX 01 25:11:30
  TRACK 04 AUDIO
    INDEX 00 28:08:55
    INDEX 01 28:10:55
REM LEADOUT 33:24:53
